0
SECTION
2
HEADER
9
$INSUNITS
70
4
9
$ACADVER
1
AC1014
9
$HANDSEED
5
FFFF
0
ENDSEC
0
SECTION
2
TABLES
0
TABLE
2
VPORT
5
8
100
AcDbSymbolTable
0
ENDTAB
0
TABLE
2
LTYPE
5
5
100
AcDbSymbolTable
0
LTYPE
5
14
100
AcDbSymbolTableRecord
100
AcDbLinetypeTableRecord
2
BYBLOCK
70
0
0
LTYPE
5
15
100
AcDbSymbolTableRecord
100
AcDbLinetypeTableRecord
2
BYLAYER
70
0
0
LTYPE
5
16
100
AcDbSymbolTableRecord
100
AcDbLinetypeTableRecord
2
DASHED
70
0
3
Dashed __ __ __ __ __ __ __ __ __ __ __ __ __ _
72
65
73
2
40
0.75
49
0.5
74
0
49
-0.25
74
0
0
ENDTAB
0
TABLE
2
LAYER
5
2
100
AcDbSymbolTable
70
2
0
LAYER
5
50
100
AcDbSymbolTableRecord
100
AcDbLayerTableRecord
2
0
70
0
62
7
6
CONTINUOUS
0
ENDTAB
0
TABLE
2
STYLE
5
3
100
AcDbSymbolTable
70
1
0
STYLE
5
11
100
AcDbSymbolTableRecord
100
AcDbTextStyleTableRecord
2
STANDARD
70
0
0
ENDTAB
0
TABLE
2
VIEW
5
6
100
AcDbSymbolTable
70
0
0
ENDTAB
0
TABLE
2
UCS
5
7
100
AcDbSymbolTable
70
0
0
ENDTAB
0
TABLE
2
APPID
5
9
100
AcDbSymbolTable
70
2
0
APPID
5
12
100
AcDbSymbolTableRecord
100
AcDbRegAppTableRecord
2
ACAD
70
0
0
ENDTAB
0
TABLE
2
DIMSTYLE
5
A
100
AcDbSymbolTable
70
1
0
ENDTAB
0
TABLE
2
BLOCK_RECORD
5
1
100
AcDbSymbolTable
70
1
0
BLOCK_RECORD
5
1F
100
AcDbSymbolTableRecord
100
AcDbBlockTableRecord
2
*MODEL_SPACE
0
BLOCK_RECORD
5
1B
100
AcDbSymbolTableRecord
100
AcDbBlockTableRecord
2
*PAPER_SPACE
0
ENDTAB
0
ENDSEC
0
SECTION
2
BLOCKS
0
BLOCK
5
20
100
AcDbEntity
100
AcDbBlockBegin
2
*MODEL_SPACE
0
ENDBLK
5
21
100
AcDbEntity
100
AcDbBlockEnd
0
BLOCK
5
1C
100
AcDbEntity
100
AcDbBlockBegin
2
*PAPER_SPACE
0
ENDBLK
5
1D
100
AcDbEntity
100
AcDbBlockEnd
0
ENDSEC
0
SECTION
2
ENTITIES
0
LWPOLYLINE
5
100
100
AcDbEntity
8
OUTER_PROFILES
100
AcDbPolyline
90
12
70
1
43
0.0
10
162.49999948241805
20
48.810859809547466
10
162.49999948241805
20
34.810859809547459
10
86.389197709033013
20
34.810859809547459
42
-1.9290700368177864
10
83.610800875725687
20
34.810859809547459
10
7.4999994824180405
20
34.810859809547459
10
7.4999994824180405
20
48.810859809547466
10
-10.000000570686254
20
48.810859809547466
10
-9.9999999999999645
20
9.9999998805471613
42
0.41421355887439743
10
-6.1232340974897168e-16
20
6.106226635438361e-14
10
169.99999964279741
20
0
42
0.41421356382691138
10
179.99999964279741
20
10.000000049636457
10
179.99999945015443
20
48.810859809547466
0
CIRCLE
5
101
100
AcDbEntity
8
INTERIOR_PROFILES
100
AcDbCircle
10
-18.847011730664214
20
22.988749456873062
30
0
40
1.9999999999999996
210
0
220
0
230
-1
0
CIRCLE
5
102
100
AcDbEntity
8
INTERIOR_PROFILES
100
AcDbCircle
10
-8.8470117306641072
20
22.988749456873062
30
0
40
1.9999999999999996
210
0
220
0
230
-1
0
LWPOLYLINE
5
103
100
AcDbEntity
8
INTERIOR_PROFILES
100
AcDbPolyline
90
6
70
1
43
0.0
10
161.6682759334023
20
5.4593685836702877
42
0.033670323204282024
10
162.04019432215657
20
4.0239565604035725
42
-1.0000003861385887
10
158.81369469523042
20
2.9517143612137109
42
-0.18818112506430176
10
159.34995793665314
20
13.422691575317664
42
-0.99999855025513928
10
162.45003450104053
20
12.026438155621053
42
0.063021499505824793
10
161.63929255159832
20
9.3802856598164333
42
0.20171498972054477
0
CIRCLE
5
104
100
AcDbEntity
8
INTERIOR_PROFILES
100
AcDbCircle
10
-150.00000011945343
20
29.488749456873062
30
0
40
1.9999999999999929
210
0
220
0
230
-1
0
CIRCLE
5
105
100
AcDbEntity
8
INTERIOR_PROFILES
100
AcDbCircle
10
-141.24999972367098
20
4.499999577251641
30
0
40
1.9999999999999929
210
0
220
0
230
-1
0
CIRCLE
5
106
100
AcDbEntity
8
INTERIOR_PROFILES
100
AcDbCircle
10
-140.00000011945241
20
13.916903930462157
30
0
40
1.9999999999999929
210
0
220
0
230
-1
0
CIRCLE
5
107
100
AcDbEntity
8
INTERIOR_PROFILES
100
AcDbCircle
10
-150.00000011945343
20
13.916903930462157
30
0
40
1.9999999999999929
210
0
220
0
230
-1
0
CIRCLE
5
108
100
AcDbEntity
8
INTERIOR_PROFILES
100
AcDbCircle
10
-175.00000011945343
20
24.488749605884557
30
0
40
1.9500000000000028
210
0
220
0
230
-1
0
CIRCLE
5
109
100
AcDbEntity
8
INTERIOR_PROFILES
100
AcDbCircle
10
-28.749999723670978
20
4.4999979230185527
30
0
40
1.9999999999999929
210
0
220
0
230
-1
0
CIRCLE
5
110
100
AcDbEntity
8
INTERIOR_PROFILES
100
AcDbCircle
10
-84.999999556483615
20
15.869998733549151
30
0
40
1.7000000362504153
210
0
220
0
230
-1
0
CIRCLE
5
111
100
AcDbEntity
8
INTERIOR_PROFILES
100
AcDbCircle
10
-91.500000119453432
20
29.488749456873062
30
0
40
1.9999999999999929
210
0
220
0
230
-1
0
CIRCLE
5
112
100
AcDbEntity
8
INTERIOR_PROFILES
100
AcDbCircle
10
172.49999817080442
20
7.5000025983020091
30
0
40
1.6999997719135576
210
0
220
0
230
1
0
LWPOLYLINE
5
113
100
AcDbEntity
8
INTERIOR_PROFILES
100
AcDbPolyline
90
6
70
1
43
0.0
10
8.1896956195282105
20
4.8128413967549193
42
0.015568096308358084
10
8.336193314714242
20
5.4832378408995925
42
0.2563518440179231
10
8.3645677491309982
20
9.3578438586099502
42
0.082281256924030946
10
7.1848302036185991
20
12.762553648340823
42
-0.99999855023599438
10
10.172275884188721
20
14.385875186582336
42
-0.18818112506534806
10
11.487107510319987
20
3.9839448027846713
42
-1.0000003861385887
0
CIRCLE
5
114
100
AcDbEntity
8
INTERIOR_PROFILES
100
AcDbCircle
10
-151.25833036865043
20
22.988749456873062
30
0
40
1.9999999999999929
210
0
220
0
230
-1
0
CIRCLE
5
115
100
AcDbEntity
8
INTERIOR_PROFILES
100
AcDbCircle
10
-140.00000011945241
20
29.488749456873062
30
0
40
1.9999999999999929
210
0
220
0
230
-1
0
CIRCLE
5
116
100
AcDbEntity
8
INTERIOR_PROFILES
100
AcDbCircle
10
-30.105341979861819
20
29.488749456873062
30
0
40
2.0000000000000018
210
0
220
0
230
-1
0
CIRCLE
5
117
100
AcDbEntity
8
INTERIOR_PROFILES
100
AcDbCircle
10
-1.1945299860371961e-07
20
43.91690407947376
30
0
40
1.9500000000000002
210
0
220
0
230
-1
0
CIRCLE
5
118
100
AcDbEntity
8
INTERIOR_PROFILES
100
AcDbCircle
10
-2.4999989444482296
20
7.5000002567168522
30
0
40
1.699999771913574
210
0
220
0
230
1
0
CIRCLE
5
119
100
AcDbEntity
8
INTERIOR_PROFILES
100
AcDbCircle
10
-78.500000119453034
20
29.488749456873062
30
0
40
1.9999999999999929
210
0
220
0
230
-1
0
CIRCLE
5
120
100
AcDbEntity
8
INTERIOR_PROFILES
100
AcDbCircle
10
-161.25833036865043
20
22.988749456873062
30
0
40
1.9999999999999929
210
0
220
0
230
-1
0
CIRCLE
5
121
100
AcDbEntity
8
INTERIOR_PROFILES
100
AcDbCircle
10
-91.500000119453432
20
13.916903930462157
30
0
40
1.9999999999999929
210
0
220
0
230
-1
0
CIRCLE
5
122
100
AcDbEntity
8
INTERIOR_PROFILES
100
AcDbCircle
10
-18.847011730664214
20
7.4169039304621087
30
0
40
1.9999999999999996
210
0
220
0
230
-1
0
CIRCLE
5
123
100
AcDbEntity
8
INTERIOR_PROFILES
100
AcDbCircle
10
-30.105341979861819
20
13.916903930462157
30
0
40
2.0000000000000018
210
0
220
0
230
-1
0
CIRCLE
5
124
100
AcDbEntity
8
INTERIOR_PROFILES
100
AcDbCircle
10
-78.500000119453034
20
13.916903930462157
30
0
40
1.9999999999999929
210
0
220
0
230
-1
0
CIRCLE
5
125
100
AcDbEntity
8
INTERIOR_PROFILES
100
AcDbCircle
10
-20.105341979861819
20
13.916903930462157
30
0
40
1.9999999999999996
210
0
220
0
230
-1
0
CIRCLE
5
126
100
AcDbEntity
8
INTERIOR_PROFILES
100
AcDbCircle
10
4.9999998805469659
20
24.488749605884557
30
0
40
1.9500000000000006
210
0
220
0
230
-1
0
CIRCLE
5
127
100
AcDbEntity
8
INTERIOR_PROFILES
100
AcDbCircle
10
-20.105341979861819
20
29.488749456873062
30
0
40
1.9999999999999996
210
0
220
0
230
-1
0
CIRCLE
5
128
100
AcDbEntity
8
INTERIOR_PROFILES
100
AcDbCircle
10
-170.00000011945343
20
43.91690407947376
30
0
40
1.9500000000000028
210
0
220
0
230
-1
0
CIRCLE
5
129
100
AcDbEntity
8
INTERIOR_PROFILES
100
AcDbCircle
10
-151.25833036865043
20
7.4169039304621087
30
0
40
1.9999999999999929
210
0
220
0
230
-1
0
ENDSEC
0
SECTION
2
OBJECTS
0
DICTIONARY
5
C
100
AcDbDictionary
3
ACAD_GROUP
350
D
3
ACAD_MLINESTYLE
350
17
0
DICTIONARY
5
D
100
AcDbDictionary
0
DICTIONARY
5
1A
330
C
100
AcDbDictionary
0
DICTIONARY
5
17
100
AcDbDictionary
0
ENDSEC
0
EOF
