0
SECTION
2
HEADER
9
$INSUNITS
70
4
9
$ACADVER
1
AC1014
9
$HANDSEED
5
FFFF
0
ENDSEC
0
SECTION
2
TABLES
0
TABLE
2
VPORT
5
8
100
AcDbSymbolTable
0
ENDTAB
0
TABLE
2
LTYPE
5
5
100
AcDbSymbolTable
0
LTYPE
5
14
100
AcDbSymbolTableRecord
100
AcDbLinetypeTableRecord
2
BYBLOCK
70
0
0
LTYPE
5
15
100
AcDbSymbolTableRecord
100
AcDbLinetypeTableRecord
2
BYLAYER
70
0
0
LTYPE
5
16
100
AcDbSymbolTableRecord
100
AcDbLinetypeTableRecord
2
DASHED
70
0
3
Dashed __ __ __ __ __ __ __ __ __ __ __ __ __ _
72
65
73
2
40
0.75
49
0.5
74
0
49
-0.25
74
0
0
ENDTAB
0
TABLE
2
LAYER
5
2
100
AcDbSymbolTable
70
2
0
LAYER
5
50
100
AcDbSymbolTableRecord
100
AcDbLayerTableRecord
2
0
70
0
62
7
6
CONTINUOUS
0
ENDTAB
0
TABLE
2
STYLE
5
3
100
AcDbSymbolTable
70
1
0
STYLE
5
11
100
AcDbSymbolTableRecord
100
AcDbTextStyleTableRecord
2
STANDARD
70
0
0
ENDTAB
0
TABLE
2
VIEW
5
6
100
AcDbSymbolTable
70
0
0
ENDTAB
0
TABLE
2
UCS
5
7
100
AcDbSymbolTable
70
0
0
ENDTAB
0
TABLE
2
APPID
5
9
100
AcDbSymbolTable
70
2
0
APPID
5
12
100
AcDbSymbolTableRecord
100
AcDbRegAppTableRecord
2
ACAD
70
0
0
ENDTAB
0
TABLE
2
DIMSTYLE
5
A
100
AcDbSymbolTable
70
1
0
ENDTAB
0
TABLE
2
BLOCK_RECORD
5
1
100
AcDbSymbolTable
70
1
0
BLOCK_RECORD
5
1F
100
AcDbSymbolTableRecord
100
AcDbBlockTableRecord
2
*MODEL_SPACE
0
BLOCK_RECORD
5
1B
100
AcDbSymbolTableRecord
100
AcDbBlockTableRecord
2
*PAPER_SPACE
0
ENDTAB
0
ENDSEC
0
SECTION
2
BLOCKS
0
BLOCK
5
20
100
AcDbEntity
100
AcDbBlockBegin
2
*MODEL_SPACE
0
ENDBLK
5
21
100
AcDbEntity
100
AcDbBlockEnd
0
BLOCK
5
1C
100
AcDbEntity
100
AcDbBlockBegin
2
*PAPER_SPACE
0
ENDBLK
5
1D
100
AcDbEntity
100
AcDbBlockEnd
0
ENDSEC
0
SECTION
2
ENTITIES
0
LWPOLYLINE
5
100
100
AcDbEntity
8
OUTER_PROFILES
100
AcDbPolyline
90
18
70
1
43
0.0
10
121.39732918924842
20
37.261199756904368
42
-0.99999999999999989
10
118.49732918924843
20
37.261199756904368
10
118.4973291892484
20
42.810859809547459
42
0.41421356237309503
10
112.49732918924842
20
48.810859809547466
10
57.608012910066208
20
48.810859809547473
42
0.41421356237309465
10
51.608012910066208
20
42.810859809547466
10
51.608012910066201
20
37.261199756904368
42
-0.99999999999999989
10
48.708012910066209
20
37.261199756904368
10
48.708012910066323
20
42.810859809547466
42
0.41421356237309503
10
42.708012910066309
20
48.810859809547473
10
-10.00000057068628
20
48.810859809547466
10
-9.9999999999999023
20
9.9999998805471595
42
0.41421355887439765
10
0
20
0
10
169.99999964279741
20
6.2172489379008766e-14
42
0.41421356382691132
10
179.99999964279741
20
10.000000049636455
10
179.99999945015443
20
48.810859809547473
10
127.39732918924841
20
48.810859809547473
42
0.41421356237309548
10
121.39732918924842
20
42.810859809547459
0
CIRCLE
5
101
100
AcDbEntity
8
INTERIOR_PROFILES
100
AcDbCircle
10
-175.00000011945343
20
24.488749605884564
30
0
40
1.9500000000000028
210
0
220
0
230
-1
0
CIRCLE
5
102
100
AcDbEntity
8
INTERIOR_PROFILES
100
AcDbCircle
10
-150.00000011945343
20
29.488749456873062
30
0
40
1.9999999999999929
210
0
220
0
230
-1
0
CIRCLE
5
103
100
AcDbEntity
8
INTERIOR_PROFILES
100
AcDbCircle
10
-8.8470117306641107
20
22.988749456873066
30
0
40
1.9999999999999996
210
0
220
0
230
-1
0
CIRCLE
5
104
100
AcDbEntity
8
INTERIOR_PROFILES
100
AcDbCircle
10
-151.25833036865043
20
22.988749456873066
30
0
40
1.9999999999999929
210
0
220
0
230
-1
0
CIRCLE
5
105
100
AcDbEntity
8
INTERIOR_PROFILES
100
AcDbCircle
10
-161.25833036865043
20
22.988749456873066
30
0
40
1.9999999999999929
210
0
220
0
230
-1
0
CIRCLE
5
106
100
AcDbEntity
8
INTERIOR_PROFILES
100
AcDbCircle
10
-170.00000011945343
20
43.91690407947376
30
0
40
1.9500000000000028
210
0
220
0
230
-1
0
CIRCLE
5
107
100
AcDbEntity
8
INTERIOR_PROFILES
100
AcDbCircle
10
-78.50000011945302
20
13.916903930462162
30
0
40
1.9999999999999929
210
0
220
0
230
-1
0
CIRCLE
5
108
100
AcDbEntity
8
INTERIOR_PROFILES
100
AcDbCircle
10
-150.00000011945343
20
13.916903930462162
30
0
40
1.9999999999999929
210
0
220
0
230
-1
0
CIRCLE
5
109
100
AcDbEntity
8
INTERIOR_PROFILES
100
AcDbCircle
10
-140.00000011945241
20
13.916903930462162
30
0
40
1.9999999999999929
210
0
220
0
230
-1
0
CIRCLE
5
110
100
AcDbEntity
8
INTERIOR_PROFILES
100
AcDbCircle
10
-78.50000011945302
20
29.488749456873066
30
0
40
1.9999999999999929
210
0
220
0
230
-1
0
CIRCLE
5
111
100
AcDbEntity
8
INTERIOR_PROFILES
100
AcDbCircle
10
-18.847011730664207
20
22.988749456873066
30
0
40
1.9999999999999996
210
0
220
0
230
-1
0
CIRCLE
5
112
100
AcDbEntity
8
INTERIOR_PROFILES
100
AcDbCircle
10
4.9999998805469836
20
24.488749605884568
30
0
40
1.9500000000000006
210
0
220
0
230
-1
0
CIRCLE
5
113
100
AcDbEntity
8
INTERIOR_PROFILES
100
AcDbCircle
10
-20.105341979861805
20
29.488749456873066
30
0
40
1.9999999999999996
210
0
220
0
230
-1
0
CIRCLE
5
114
100
AcDbEntity
8
INTERIOR_PROFILES
100
AcDbCircle
10
-30.105341979861802
20
13.916903930462166
30
0
40
2.0000000000000018
210
0
220
0
230
-1
0
CIRCLE
5
115
100
AcDbEntity
8
INTERIOR_PROFILES
100
AcDbCircle
10
-20.105341979861805
20
13.916903930462166
30
0
40
1.9999999999999996
210
0
220
0
230
-1
0
CIRCLE
5
116
100
AcDbEntity
8
INTERIOR_PROFILES
100
AcDbCircle
10
-30.105341979861802
20
29.488749456873062
30
0
40
2.0000000000000018
210
0
220
0
230
-1
0
CIRCLE
5
117
100
AcDbEntity
8
INTERIOR_PROFILES
100
AcDbCircle
10
-91.500000119453404
20
13.916903930462166
30
0
40
1.9999999999999929
210
0
220
0
230
-1
0
CIRCLE
5
118
100
AcDbEntity
8
INTERIOR_PROFILES
100
AcDbCircle
10
-140.00000011945241
20
29.488749456873062
30
0
40
1.9999999999999929
210
0
220
0
230
-1
0
CIRCLE
5
119
100
AcDbEntity
8
INTERIOR_PROFILES
100
AcDbCircle
10
-18.847011730664207
20
7.4169039304621132
30
0
40
1.9999999999999996
210
0
220
0
230
-1
0
CIRCLE
5
120
100
AcDbEntity
8
INTERIOR_PROFILES
100
AcDbCircle
10
-1.194530074855038e-07
20
43.91690407947376
30
0
40
1.9500000000000002
210
0
220
0
230
-1
0
CIRCLE
5
121
100
AcDbEntity
8
INTERIOR_PROFILES
100
AcDbCircle
10
-91.500000119453404
20
29.488749456873062
30
0
40
1.9999999999999929
210
0
220
0
230
-1
0
CIRCLE
5
122
100
AcDbEntity
8
INTERIOR_PROFILES
100
AcDbCircle
10
-151.25833036865043
20
7.4169039304621087
30
0
40
1.9999999999999929
210
0
220
0
230
-1
0
LWPOLYLINE
5
123
100
AcDbEntity
8
INTERIOR_PROFILES
100
AcDbPolyline
90
6
70
1
43
0.0
10
159.34995730431896
20
13.422691860116922
42
-0.99999855023599438
10
162.45003450104053
20
12.026438155621049
42
0.063021499505824904
10
161.63929255159837
20
9.3802856598164333
42
0.2017149897205455
10
161.6682759334023
20
5.4593685836702903
42
0.033670323204283266
10
162.04019460907051
20
4.0239566557519915
42
-1.0000003860667022
10
158.8136958724069
20
2.9517147524168061
42
-0.18818112506432635
0
CIRCLE
5
124
100
AcDbEntity
8
INTERIOR_PROFILES
100
AcDbCircle
10
-84.999999292379329
20
33.830998750134988
30
0
40
1.6999999813488209
210
0
220
0
230
-1
0
CIRCLE
5
125
100
AcDbEntity
8
INTERIOR_PROFILES
100
AcDbCircle
10
-55.499999207909994
20
39.575968443697143
30
0
40
1.5000000000000036
210
0
220
0
230
-1
0
LWPOLYLINE
5
126
100
AcDbEntity
8
INTERIOR_PROFILES
100
AcDbPolyline
90
6
70
1
43
0.0
10
8.1896956195281962
20
4.8128413967549228
42
0.015568096308358976
10
8.3361933147142313
20
5.4832378408996085
42
0.25635184401792216
10
8.3645677491309876
20
9.3578438586099484
42
0.082281256924030766
10
7.1848303945881167
20
12.762553752110104
42
-0.99999855025513928
10
10.172275274828326
20
14.385874855467202
42
-0.1881811250653242
10
11.487108713369034
20
3.9839445003651797
42
-1.0000003861385887
0
CIRCLE
5
127
100
AcDbEntity
8
INTERIOR_PROFILES
100
AcDbCircle
10
172.49999817080442
20
7.5000025983020135
30
0
40
1.699999771913556
210
0
220
0
230
1
0
CIRCLE
5
128
100
AcDbEntity
8
INTERIOR_PROFILES
100
AcDbCircle
10
-25.499999207910001
20
39.57596800256988
30
0
40
1.5000000000000036
210
0
220
0
230
-1
0
CIRCLE
5
129
100
AcDbEntity
8
INTERIOR_PROFILES
100
AcDbCircle
10
-141.24999972367101
20
4.4999995772516499
30
0
40
1.9999999999999929
210
0
220
0
230
-1
0
CIRCLE
5
130
100
AcDbEntity
8
INTERIOR_PROFILES
100
AcDbCircle
10
-28.749999723670967
20
4.4999979230185616
30
0
40
1.9999999999999929
210
0
220
0
230
-1
0
CIRCLE
5
131
100
AcDbEntity
8
INTERIOR_PROFILES
100
AcDbCircle
10
-84.999999556483601
20
15.869998733549156
30
0
40
1.7000000362504153
210
0
220
0
230
-1
0
CIRCLE
5
132
100
AcDbEntity
8
INTERIOR_PROFILES
100
AcDbCircle
10
-114.49999920790998
20
39.575969311247434
30
0
40
1.5000000000000036
210
0
220
0
230
-1
0
CIRCLE
5
133
100
AcDbEntity
8
INTERIOR_PROFILES
100
AcDbCircle
10
-2.4999989444482562
20
7.5000002567168567
30
0
40
1.699999771913574
210
0
220
0
230
1
0
CIRCLE
5
134
100
AcDbEntity
8
INTERIOR_PROFILES
100
AcDbCircle
10
-144.49999920790998
20
39.575969752374696
30
0
40
1.5000000000000036
210
0
220
0
230
-1
0
CIRCLE
5
135
100
AcDbEntity
8
INTERIOR_PROFILES
100
AcDbCircle
10
-84.999999207909966
20
39.575968877472285
30
0
40
1.4999999999999858
210
0
220
0
230
-1
0
ENDSEC
0
SECTION
2
OBJECTS
0
DICTIONARY
5
C
100
AcDbDictionary
3
ACAD_GROUP
350
D
3
ACAD_MLINESTYLE
350
17
0
DICTIONARY
5
D
100
AcDbDictionary
0
DICTIONARY
5
1A
330
C
100
AcDbDictionary
0
DICTIONARY
5
17
100
AcDbDictionary
0
ENDSEC
0
EOF
